<?xml version="1.0" encoding="UTF-8" standalone="no"?>
<svg
   version="1.1"
   viewBox="0 0 10.728661 6.146785"
   id="svg13"
   width="10.728662"
   height="6.1467848"
   sodipodi:docname="FIPLogo.svg"
   inkscape:export-filename="FIPLogoFIP.svg"
   inkscape:export-xdpi="96"
   inkscape:export-ydpi="96"
   xmlns:inkscape="http://www.inkscape.org/namespaces/inkscape"
   xmlns:sodipodi="http://sodipodi.sourceforge.net/DTD/sodipodi-0.dtd"
   xmlns="http://www.w3.org/2000/svg"
   xmlns:svg="http://www.w3.org/2000/svg">
  <sodipodi:namedview
     id="namedview1"
     pagecolor="#ffffff"
     bordercolor="#000000"
     borderopacity="0.25"
     inkscape:showpageshadow="2"
     inkscape:pageopacity="0.0"
     inkscape:pagecheckerboard="0"
     inkscape:deskcolor="#d1d1d1"
     inkscape:zoom="68.19519"
     inkscape:cx="7.6251712"
     inkscape:cy="3.0720642"
     inkscape:window-width="1920"
     inkscape:window-height="1057"
     inkscape:window-x="-8"
     inkscape:window-y="-8"
     inkscape:window-maximized="1"
     inkscape:current-layer="g12" />
  <g
     transform="matrix(0.79454668,0,0,0.79454668,5.9219442,1.60821)"
     id="g12"
     inkscape:export-filename="g12.svg"
     inkscape:export-xdpi="96"
     inkscape:export-ydpi="96">
    <g
       clip-path="url(#SvgjsClipPath30081)"
       id="g9">
      <g
         clip-path="url(#SvgjsClipPath300793f841609-e637-4f60-8c84-88cf9283f221)"
         id="g1">
        <path
           d="M -7.1573889,-0.02487031 V 3.13208 l 1.5361135,-1.2288907 1.2448915,0.6650906 2.4884613,-1.83328262 1.20472454,0.71682152 V -0.02487031 L -3.9203407,-1.8937887 Z"
           fill="#ede8e8"
           fill-rule="evenodd"
           id="path1" />
      </g>
      <g
         clip-path="url(#SvgjsClipPath300793f841609-e637-4f60-8c84-88cf9283f221)"
         id="g2">
        <path
           d="m -3.8641258,-1.9916336 1.6185241,0.9345536 h 4.72e-4 l 1.61852405,0.93455356 0.0566396,0.03266218 V 3.7782436 l -0.0566396,0.032709 -1.61852405,0.9345536 h -4.72e-4 l -1.6185241,0.9345536 -0.056215,0.032379 -0.056262,-0.032379 -1.6185241,-0.9345536 h -4.248e-4 l -1.6185241,-0.9345536 -0.05664,-0.032709 v -3.86824946 l 0.05664,-0.03266218 1.6185241,-0.93455356 h 4.248e-4 l 1.6185241,-0.9345536 0.056262,-0.032426 0.056215,0.032426 z m 1.5056696,1.12991303 -1.5620261,-0.90189143 -1.5620261,0.90189143 v 0 L -7.04444,0.03979325 V 3.6475949 l 1.5619316,0.9015138 v 0 l 1.5620261,0.9018442 1.5620261,-0.9018442 v 0 L -0.79657168,3.6475949 V 0.04017084 L -2.3584562,-0.86134297 Z"
           fill="#c5b3b3"
           fill-rule="evenodd"
           id="path2" />
      </g>
      <g
         clip-path="url(#SvgjsClipPath300793f841609-e637-4f60-8c84-88cf9283f221)"
         id="g3">
        <path
           d="m -7.1700384,3.4252372 c 0.156406,0 0.2831981,-0.1267921 0.2831981,-0.283198 0,-0.156406 -0.1267921,-0.2831981 -0.2831981,-0.2831981 -0.156406,0 -0.283198,0.1267921 -0.283198,0.2831981 3.116e-4,0.1562767 0.1269213,0.2828864 0.283198,0.283198 z"
           fill="#c5b3b3"
           fill-rule="evenodd"
           id="path3" />
      </g>
      <g
         clip-path="url(#SvgjsClipPath300793f841609-e637-4f60-8c84-88cf9283f221)"
         id="g4">
        <path
           d="m -5.6210866,2.1863873 c 0.156406,0 0.2831981,-0.1267921 0.2831981,-0.283198 0,-0.156406 -0.1267921,-0.2831981 -0.2831981,-0.2831981 -0.156406,0 -0.2831981,0.1267921 -0.2831981,0.2831981 3.375e-4,0.1562659 0.1269321,0.2828605 0.2831981,0.283198 z"
           fill="#c5b3b3"
           fill-rule="evenodd"
           id="path4" />
      </g>
      <g
         clip-path="url(#SvgjsClipPath300793f841609-e637-4f60-8c84-88cf9283f221)"
         id="g5">
        <path
           d="m -4.3291843,2.8766826 c 0.156406,0 0.2831981,-0.1267921 0.2831981,-0.2831981 0,-0.1564059 -0.1267921,-0.283198 -0.2831981,-0.283198 -0.1564059,0 -0.283198,0.1267921 -0.283198,0.283198 3.116e-4,0.1562767 0.1269213,0.2828865 0.283198,0.2831981 z"
           fill="#c5b3b3"
           fill-rule="evenodd"
           id="path5" />
      </g>
      <g
         clip-path="url(#SvgjsClipPath300793f841609-e637-4f60-8c84-88cf9283f221)"
         id="g6">
        <path
           d="m -1.6047245,0.73499728 c 0,0.15640598 -0.1267921,0.28319802 -0.2831981,0.28319802 -0.156406,0 -0.2831981,-0.12679204 -0.2831981,-0.28319802 0,-0.15640598 0.1267921,-0.28319806 0.2831981,-0.28319806 0.156406,0 0.2831981,0.12679208 0.2831981,0.28319806 z"
           fill="#c5b3b3"
           fill-rule="nonzero"
           id="path6" />
      </g>
      <g
         clip-path="url(#SvgjsClipPath300793f841609-e637-4f60-8c84-88cf9283f221)"
         id="g7">
        <path
           d="M -0.68319806,1.7350168 C -0.52679209,1.7350168 -0.4,1.6082247 -0.4,1.4518188 c 0,-0.156406 -0.12679209,-0.2831981 -0.28319806,-0.2831981 -0.15640597,0 -0.28319806,0.1267921 -0.28319806,0.2831981 2.8575e-4,0.1562874 0.1269106,0.2829123 0.28319806,0.283198 z"
           fill="#c5b3b3"
           fill-rule="evenodd"
           id="path7" />
      </g>
      <g
         clip-path="url(#SvgjsClipPath300793f841609-e637-4f60-8c84-88cf9283f221)"
         id="g8">
        <path
           d="m -7.0997109,3.2302082 c -0.048616,0.038841 -0.1195141,0.030916 -0.1583549,-0.0177 -0.038841,-0.048616 -0.030916,-0.1195141 0.0177,-0.1583549 L -5.69165,1.8151618 c 0.035143,-0.028135 0.083669,-0.032628 0.1233799,-0.011422 v 0 l 1.2280884,0.6560755 2.3835837,-1.8145444 c 0.03933,-0.0299643 0.093551,-0.0309578 0.1339527,-0.002454 L -0.62580315,1.35506 c 0.0349122,0.020402 0.0562133,0.057949 0.0558149,0.098384 -3.9845e-4,0.040435 -0.0224353,0.077555 -0.0577428,0.097265 -0.0353075,0.01971 -0.0784699,0.018987 -0.11309766,-0.00189 L -0.93028836,1.4361013 -6.024691,4.3995802 c -0.026767,0.013327 -0.059283,0.00355 -0.074264,-0.022327 -0.01498,-0.025878 -0.00726,-0.058944 0.017624,-0.075518 l 5.040123,-2.9318079 -0.2318448,-0.1379646 -5.0998306,2.966594 c -0.017549,0.011687 -0.040138,0.012659 -0.058626,0.00252 -0.018488,-0.010137 -0.029815,-0.029704 -0.029398,-0.050785 4.172e-4,-0.021081 0.012509,-0.040185 0.031384,-0.049582 L -1.3842549,1.1658831 -1.6160997,1.0279185 -3.6089644,2.1871897 -4.2606031,2.6833055 v 0 c -0.035116,0.026773 -0.082614,0.030627 -0.1215864,0.00986 l -0.050173,-0.026809 -2.2884763,1.3311725 c -0.02673,0.013132 -0.059063,0.00332 -0.073989,-0.02245 -0.014925,-0.025771 -0.00734,-0.058699 0.017349,-0.075348 L -4.5496539,2.6036797 -4.7941483,2.473031 -7.0691727,3.7965099 c -0.02673,0.013132 -0.059063,0.00332 -0.073989,-0.02245 -0.014925,-0.025771 -0.00734,-0.058699 0.017349,-0.075348 L -4.9112507,2.4104442 -5.1556506,2.2798427 -7.1291163,3.427786 c -0.02673,0.013132 -0.059063,0.00332 -0.073989,-0.02245 -0.014925,-0.025771 -0.00734,-0.058699 0.017349,-0.075348 L -5.272753,2.2172087 -5.5172473,2.0866544 -6.0776491,2.4126154 -7.0996637,3.2302082 Z m 3.1640775,2.3756541 3.28070795,-1.9083773 c 0.0189912,-0.00933 0.031198,-0.028468 0.0316511,-0.049623 4.5304e-4,-0.021155 -0.0109233,-0.040798 -0.0294976,-0.050933 -0.0185743,-0.010135 -0.041249,-0.00907 -0.0587931,0.00276 L -3.9922258,5.5080646 c -0.018991,0.00933 -0.031198,0.028468 -0.031651,0.049623 -4.531e-4,0.021155 0.010923,0.040798 0.029498,0.050933 0.018574,0.010135 0.041249,0.00907 0.058793,-0.00276 z m -0.348192,-0.2010234 3.62889995,-2.1109112 c 0.0189912,-0.00933 0.031198,-0.028468 0.0316511,-0.049623 4.5304e-4,-0.021154 -0.0109233,-0.040798 -0.0294976,-0.050932 -0.0185743,-0.010135 -0.041249,-0.00907 -0.0587931,0.00276 L -4.3404178,5.3070883 c -0.019099,0.00927 -0.031412,0.028437 -0.031898,0.04966 -4.861e-4,0.021223 0.010936,0.040936 0.029591,0.051069 0.018654,0.010132 0.041409,0.00898 0.058947,-0.00298 z m -0.348192,-0.2009763 3.97709195,-2.3134921 c 0.0189912,-0.00933 0.031198,-0.028468 0.0316511,-0.049623 4.5304e-4,-0.021155 -0.0109233,-0.040798 -0.0294976,-0.050933 -0.0185743,-0.010135 -0.041249,-0.00907 -0.0587931,0.00276 L -4.6886098,5.1060177 c -0.024888,0.016574 -0.032604,0.04964 -0.017624,0.075518 0.01498,0.025878 0.047496,0.035654 0.074264,0.022327 z m -0.348192,-0.2010234 4.32528395,-2.5160259 c 0.0246928,-0.016649 0.0322745,-0.049577 0.017349,-0.075348 -0.0149254,-0.025771 -0.0472591,-0.035582 -0.0739886,-0.02245 l -4.32518955,2.516026 c -0.024693,0.016649 -0.032274,0.049577 -0.017349,0.075348 0.014925,0.025771 0.047259,0.035582 0.073989,0.02245 z M -5.3284486,4.8015798 -0.65506705,2.0828784 c 0.0248876,-0.016574 0.0326041,-0.04964 0.0176239,-0.075518 -0.0149802,-0.025878 -0.0474963,-0.035654 -0.0742635,-0.022327 L -5.3850882,4.7037349 c -0.018991,0.00933 -0.031198,0.028468 -0.031651,0.049623 -4.53e-4,0.021154 0.010923,0.040798 0.029498,0.050933 0.018574,0.010135 0.041249,0.00907 0.058793,-0.00276 z M -5.6766406,4.6005564 -0.65506705,1.67951 c 0.0248876,-0.016574 0.0326041,-0.04964 0.0176239,-0.075518 -0.0149802,-0.025878 -0.0474963,-0.035654 -0.0742635,-0.022327 L -5.7332802,4.5027586 c -0.018991,0.00933 -0.031198,0.028468 -0.031651,0.049623 -4.53e-4,0.021155 0.010923,0.040798 0.029498,0.050933 0.018574,0.010135 0.041249,0.00907 0.058793,-0.00276 z M -1.7271133,0.96183893 -1.8798987,0.87093235 -2.8807678,1.6328295 Z"
           fill="#c5b3b3"
           fill-rule="evenodd"
           id="path8" />
      </g>
    </g>
  </g>
  <defs
     id="defs13">
    <clipPath
       id="SvgjsClipPath30081">
      <path
         d="M -7.4532364,-2.0240598 H -0.4 V 5.712156 h -7.0532364 z"
         id="path12" />
    </clipPath>
    <clipPath
       id="SvgjsClipPath300793f841609-e637-4f60-8c84-88cf9283f221">
      <path
         d="M -7.4532364,-2.0240598 H -0.4 V 5.712156 h -7.0532364 z"
         id="path13" />
    </clipPath>
  </defs>
</svg>
